<svg width="58" height="58" viewBox="0 0 58 58" fill="none" xmlns="http://www.w3.org/2000/svg">
<path d="M28.8571 57.7143C13.0771 57.7143 0.285706 44.9229 0.285706 29.1429C0.285706 13.3629 13.0771 0.571426 28.8571 0.571426C44.6371 0.571426 57.4286 13.3629 57.4286 29.1429C57.4286 44.9229 44.6371 57.7143 28.8571 57.7143ZM28.8571 52C34.9192 52 40.733 49.5918 45.0196 45.3053C49.3061 41.0188 51.7143 35.2049 51.7143 29.1429C51.7143 23.0808 49.3061 17.267 45.0196 12.9804C40.733 8.69387 34.9192 6.28571 28.8571 6.28571C22.795 6.28571 16.9812 8.69387 12.6947 12.9804C8.40815 17.267 5.99999 23.0808 5.99999 29.1429C5.99999 35.2049 8.40815 41.0188 12.6947 45.3053C16.9812 49.5918 22.795 52 28.8571 52ZM26.0086 40.5714L13.8857 28.4486L17.9257 24.4086L26.0086 32.4914L42.1686 16.3286L46.2114 20.3686L26.0086 40.5714Z" fill="white"/>
</svg>
