<svg width="58" height="58" viewBox="0 0 58 58" fill="none" xmlns="http://www.w3.org/2000/svg">
<path d="M28.8572 57.7143C13.0772 57.7143 0.285736 44.9229 0.285736 29.1429C0.285736 13.3629 13.0772 0.571457 28.8572 0.571457C44.6372 0.571457 57.4286 13.3629 57.4286 29.1429C57.4286 44.9229 44.6372 57.7143 28.8572 57.7143ZM28.8572 52C34.9193 52 40.7331 49.5919 45.0196 45.3053C49.3062 41.0188 51.7143 35.205 51.7143 29.1429C51.7143 23.0808 49.3062 17.267 45.0196 12.9804C40.7331 8.6939 34.9193 6.28574 28.8572 6.28574C22.7951 6.28574 16.9813 8.6939 12.6947 12.9804C8.40818 17.267 6.00002 23.0808 6.00002 29.1429C6.00002 35.205 8.40818 41.0188 12.6947 45.3053C16.9813 49.5919 22.7951 52 28.8572 52ZM26 37.7143H31.7143V43.4286H26V37.7143ZM26 14.8572H31.7143V32H26V14.8572Z" fill="white"/>
</svg>
