<svg width="57" height="58" viewBox="0 0 57 58" fill="none" xmlns="http://www.w3.org/2000/svg">
<path d="M28.5294 57.2942C12.9351 57.2942 0.294117 44.6532 0.294117 29.0589C0.294117 13.4645 12.9351 0.823563 28.5294 0.823563C44.1238 0.823563 56.7647 13.4645 56.7647 29.0589C56.7647 44.6532 44.1238 57.2942 28.5294 57.2942ZM28.5294 51.6471C34.5202 51.6471 40.2656 49.2673 44.5017 45.0312C48.7378 40.795 51.1177 35.0496 51.1177 29.0589C51.1177 23.0681 48.7378 17.3227 44.5017 13.0866C40.2656 8.85045 34.5202 6.47062 28.5294 6.47062C22.5386 6.47062 16.7932 8.85045 12.5571 13.0866C8.321 17.3227 5.94118 23.0681 5.94118 29.0589C5.94118 35.0496 8.321 40.795 12.5571 45.0312C16.7932 49.2673 22.5386 51.6471 28.5294 51.6471ZM25.7059 14.9412H31.3529V20.5883H25.7059V14.9412ZM25.7059 26.2353H31.3529V43.1765H25.7059V26.2353Z" fill="white"/>
</svg>
