<svg width="61" height="54" viewBox="0 0 61 54" fill="none" xmlns="http://www.w3.org/2000/svg">
<path d="M33.3314 1.99996L60.5485 49.1428C60.7993 49.5772 60.9313 50.0699 60.9313 50.5714C60.9313 51.0729 60.7993 51.5656 60.5485 51.9999C60.2978 52.4343 59.9371 52.795 59.5028 53.0457C59.0685 53.2965 58.5758 53.4285 58.0742 53.4285H3.63996C3.13843 53.4285 2.64575 53.2965 2.21141 53.0457C1.77708 52.795 1.41641 52.4343 1.16566 51.9999C0.914899 51.5656 0.782887 51.0729 0.78289 50.5714C0.782894 50.0699 0.914911 49.5772 1.16568 49.1428L28.3828 1.99996C28.6336 1.56566 28.9943 1.20501 29.4286 0.954266C29.8629 0.703522 30.3556 0.571518 30.8571 0.571518C31.3586 0.571518 31.8513 0.703522 32.2856 0.954266C32.7199 1.20501 33.0806 1.56566 33.3314 1.99996ZM8.58853 47.7143H53.1257L30.8571 9.14282L8.58853 47.7143ZM28 39.1428H33.7142V44.8571H28V39.1428ZM28 19.1428H33.7142V33.4285H28V19.1428Z" fill="white"/>
</svg>
